<?xml version="1.0" encoding="utf-8"?>
<!-- Generator: Adobe Illustrator 27.5.0, SVG Export Plug-In . SVG Version: 6.00 Build 0)  -->
<svg version="1.1" id="Layer_1" xmlns="http://www.w3.org/2000/svg" xmlns:xlink="http://www.w3.org/1999/xlink" x="0px" y="0px"
	 viewBox="0 0 8000 5000" style="enable-background:new 0 0 8000 5000;" xml:space="preserve">
<g>
	<rect x="0.728" y="0.455" style="fill-rule:evenodd;clip-rule:evenodd;fill:#012604;" width="7999.272" height="4999.545"/>
	<g>
		<defs>
			<path id="SVGID_1_" d="M1048.397,3692.797C670.517,2937.036,0.728,3341.91,0.728,3341.91V5000H2263.01
				C2195.531,3662.043,1426.278,4448.557,1048.397,3692.797"/>
		</defs>
		<clipPath id="SVGID_00000106108219292896638260000005999660734951575990_">
			<use xlink:href="#SVGID_1_"  style="overflow:visible;"/>
		</clipPath>
		
			<linearGradient id="SVGID_00000067936219607449623710000015687820203302998177_" gradientUnits="userSpaceOnUse" x1="-240.2652" y1="5260.625" x2="1057.8862" y2="4038.1858">
			<stop  offset="0" style="stop-color:#53C406"/>
			<stop  offset="1" style="stop-color:#328A09"/>
		</linearGradient>
		
			<rect x="0.728" y="2937.036" style="clip-path:url(#SVGID_00000106108219292896638260000005999660734951575990_);fill:url(#SVGID_00000067936219607449623710000015687820203302998177_);" width="2262.282" height="2062.964"/>
	</g>
	<g>
		<defs>
			<path id="SVGID_00000163764648420248311690000013545370390098053798_" d="M2087.567,3733.287
				C1003.229,3675.2,1725.425,1744.355,0.728,2275.747V3341.91c0,0,669.789-404.874,1047.669,350.887
				c377.881,755.76,1147.134-30.754,1214.613,1307.203h971.69C3221.204,4093.907,2843.327,3773.772,2087.567,3733.287"/>
		</defs>
		<clipPath id="SVGID_00000010290388986011534930000006585091896180493730_">
			<use xlink:href="#SVGID_00000163764648420248311690000013545370390098053798_"  style="overflow:visible;"/>
		</clipPath>
		
			<linearGradient id="SVGID_00000140727250713166197910000005594246113707681164_" gradientUnits="userSpaceOnUse" x1="945.4419" y1="3996.675" x2="2274.7678" y2="2761.8169">
			<stop  offset="0" style="stop-color:#215605"/>
			<stop  offset="1" style="stop-color:#53C406"/>
		</linearGradient>
		
			<rect x="0.728" y="1744.355" style="clip-path:url(#SVGID_00000010290388986011534930000006585091896180493730_);fill:url(#SVGID_00000140727250713166197910000005594246113707681164_);" width="3233.972" height="3255.645"/>
	</g>
	<g>
		<defs>
			<path id="SVGID_00000140710107471479583810000002050946611296943543_" d="M2441.813,3057.232
				C1528.454,2512.404,1601.196,852.377,0.728,1951.853v323.894c1724.697-531.392,1002.501,1399.453,2086.839,1457.54
				c755.76,40.485,1133.637,360.62,1147.133,1266.713h1052.66C4287.36,2744.293,3257.719,3543.914,2441.813,3057.232"/>
		</defs>
		<clipPath id="SVGID_00000115504457561631235260000006935778878534610818_">
			<use xlink:href="#SVGID_00000140710107471479583810000002050946611296943543_"  style="overflow:visible;"/>
		</clipPath>
		
			<linearGradient id="SVGID_00000058553466243356986570000018075848492065234062_" gradientUnits="userSpaceOnUse" x1="1709.7869" y1="3647.0627" x2="2677.157" y2="2041.2112">
			<stop  offset="0" style="stop-color:#215605"/>
			<stop  offset="1" style="stop-color:#53C406"/>
		</linearGradient>
		
			<rect x="0.728" y="852.377" style="clip-path:url(#SVGID_00000115504457561631235260000006935778878534610818_);fill:url(#SVGID_00000058553466243356986570000018075848492065234062_);" width="4286.632" height="4147.623"/>
	</g>
	<g>
		<defs>
			<path id="SVGID_00000148621422970425423630000009573126449385244332_" d="M2504.881,1885.885
				c-564.859-390.122-1189.014-156.392-1189.014-156.392c393.781,305.061,590.265,1008.201,1125.945,1327.739
				C3257.719,3543.914,4287.36,2744.293,4287.36,5000h296.907c597.162-1869.601-18.215-1951.648-649.203-2006.151
				C2712.249,2888.222,3275.955,2418.448,2504.881,1885.885"/>
		</defs>
		<clipPath id="SVGID_00000031207063795022998300000003485622256565907880_">
			<use xlink:href="#SVGID_00000148621422970425423630000009573126449385244332_"  style="overflow:visible;"/>
		</clipPath>
		
			<linearGradient id="SVGID_00000124852167904971789390000006084801134769540485_" gradientUnits="userSpaceOnUse" x1="2760.3623" y1="3879.5171" x2="4231.3921" y2="1976.6251">
			<stop  offset="0" style="stop-color:#1C4104"/>
			<stop  offset="1" style="stop-color:#328A09"/>
		</linearGradient>
		
			<rect x="1315.867" y="1495.763" style="clip-path:url(#SVGID_00000031207063795022998300000003485622256565907880_);fill:url(#SVGID_00000124852167904971789390000006084801134769540485_);" width="3865.561" height="3504.237"/>
	</g>
</g>
</svg>
